<mxfile host="Electron" modified="2023-09-26T23:49:32.263Z" agent="Mozilla/5.0 (X11; Linux x86_64) AppleWebKit/537.36 (KHTML, like Gecko) draw.io/21.7.5 Chrome/114.0.5735.289 Electron/25.8.1 Safari/537.36" etag="AAcLV48q7FfJUpHEIxw_" version="21.7.5" type="device">
  <diagram name="Page-1" id="9UApuTzWSsWw3S2TNXBY">
    <mxGraphModel dx="1834" dy="1288" grid="0" gridSize="10" guides="1" tooltips="1" connect="1" arrows="1" fold="1" page="0" pageScale="1" pageWidth="4300" pageHeight="2800" math="0" shadow="0">
      <root>
        <mxCell id="0" />
        <mxCell id="1" parent="0" />
        <mxCell id="Ao-p5evww3L0ZYdnTGIq-1" value="" style="rounded=1;whiteSpace=wrap;html=1;fontSize=16;" vertex="1" parent="1">
          <mxGeometry x="-304" y="68" width="120" height="60" as="geometry" />
        </mxCell>
        <mxCell id="Ao-p5evww3L0ZYdnTGIq-2" value="" style="rounded=1;whiteSpace=wrap;html=1;fontSize=16;" vertex="1" parent="1">
          <mxGeometry x="212" y="11" width="245" height="193" as="geometry" />
        </mxCell>
        <mxCell id="Ao-p5evww3L0ZYdnTGIq-3" value="" style="shape=image;verticalLabelPosition=bottom;labelBackgroundColor=default;verticalAlign=top;aspect=fixed;imageAspect=0;image=data:image/png,iVBORw0KGgoAAAANSUhEUgAAAIoAAACDCAYAAABSiIOsAAAABHNCSVQICAgIfAhkiAAAABl0RVh0U29mdHdhcmUAZ25vbWUtc2NyZWVuc2hvdO8Dvz4AAAAtdEVYdENyZWF0aW9uIFRpbWUAVHVlIDI2IFNlcCAyMDIzIDA4OjQ3OjQwIFBNIC0wM7QwjvcAAA6+SURBVHic7Z1bbxtFG8f/s2vHOSeOc3ZzVExbSEhJlJYiJCQ+BN+i0nuBuOMSIfEFuOGaG+64Aq4qFVr1IqJFtLRJyDlp1KQ5KQfvaea9QBM58ex6vTtjO8n8JITqdWbG9n+feWbmeZ4lnucxaDQlMKo9AM3lQAtFEwotFE0otFA0odBC0YRCC0UTCi0UTSi0UDSh0ELRhEILRROKhIxGCCEymql5GGNnn5Wx63XyEUsohJBrIxJAfENcF8FEFgohBEtLS/jf//4HSikopfA8D4lEfCN18QcpvJPDIGMMflBKMT4+jm+++ebaiASIaVEsy8Jff/0Fz/PgeZ6sMdU0Jycn6OrqqvYwKk4soVBKwRhDMplUehfXEpRSNDU1XTtfJdaqx/O8a/NFFdLY2AjG2LX67LGEwr+o6/SFMcaQSqWqPYyKE3vqCUJ0110Wk+23onNdFw0NDZfmc8gillCCph7TNNHS0lIRJ/eiYIN+xFI/LCEEjDG4rgvbtouuW5aFxsbGUG1dJZQIxfM8zMzM4LvvvruUZpoxhp9++gnffvstGhoazl7nAuRCMYzqbWxX2keKJZSggaZSKfT09Jz7omudwi+/vr5eeN0wDLiui+3t7UoPLxDDMFBfX49EIoFkMim9/VhCcRynpKpL+TG1it+429vb8cMPP+DHH38s67MRQpRZIMYY2tra8PXXX2NmZkaJpZF21nOV5mvGmK9vZZomtre3a+oGoJSio6MD+Xxe2W8hRShXSSTAf5/HcRzf64ZhVNU/uQhj7GzDU5WAY33aoKnHMAyYphmn+apRSii1iOqbVcqG21WDUop8Pl/tYZSF6lN8Kc7sVfRRXNcFpRSu61Z7OOeo1pmaFKGIRGKa5qWdeggh6Orqwu3bt0P/MDzUgr+fC+ziv0tR+F0WWgnGGEzTxPr6Omzb9vWRDMNQ4qcok+dlDmhKJpN48OABHjx4UO2hFPHFF1/g8ePHFXemlZz18Ncvs1hq8TMQQqo2Fcaeeurq6opeJ4QglUpdCd+lVsZfbcHGjkcR+SGEEKGANOqpyX0U0d3GrUhdXV3V74KrSLVWPbGEYtt2kVj4cvm6hEZWirBToKqbM5ZQeMyssOEa2uK+KoQRS00KRRTYA/w3WBVH3ZrqEduiiCCEXNrNtlqnWstjZVH4iUSiZpaWV4lL6cx6nif0RSilSCaTetWjgGrFwUQWCt8l9MvH1RZFDdVaJETuNSi4V/soV49Y8nRdVy+Prwmxpx6/a1ooVwspeT0iP0VWPg8XnOo8FpGwC/u8TMIvZ6xhnePIQmGMBXYiEs/x8TEsy/JtLy5Bbahuv9z3+gk/6O8IIb6bnJRS7OzsYGlpKXROuGEYyGazoZbcsSyKn48icmYppfj+++/xyy+/+H5BpeJbSuF3pCBqOyjtlFIqFDqPYgvDxXSPi8Lw+xH90kS45bYsq2jXmxCCw8NDfPXVVzAMA7ZtwzTNwLZc10U2m8XPP/+M7u7ukp8nVsUlSqnQzImEks/n8ezZM7x69apsM65iP6ZUknmtTjVB5dAKb9xSO7iu62J4eDh0JmdkoVBKS+a+FLK/v4/9/X0kEgm9dFZEOTX1CCEYHh4OHTcUa9VTai+lcNA7Ozt49+6d3q2tEQghyGazoQ9vY224BS2PTdM8ExEhBFtbWzg8PNRCqQEYY2hqasLQ0FBo6x5r1eN3KGhZ1rmphzGGtbU17O/vC6sEcCeRO6OiwXN/KCgGphC+lxP2/bVYQ9Z1XZimeRab7Lpu6HozpmkilUoJLYbnechkMujv7w/9WZVE4Xued3YoyBiDbdtYX18XDsp1XfT29p7VRQPOb9gV5spwCttJJBKBVuri3158r2maZ+Pk/y/3hDasQ8hXIqXMPd+D4mPiN0nQVH8xhdcwDOzu7uLJkyfCqleZTCbUaoejvDQX8F+A0/LysvAH3dvbw++//46hoaE4Q9EI+O233/Dw4cMih5VXP+jo6AjdVmSheJ6Hk5MT4TUe4cbvUMuysLS0VHQnMcbQ3NyM7u5u3ztFxjRQa1NKJSCE4NWrV0LrSClFT08PGhsbQ6fUKNssKDTne3t7WFhYKPI9HMfB3bt30dDQcGZWL/6niYbjOHj58qXvhuL4+Pi5BUcplAilMGaWEIJ///1XWB0gn8/j448/VjGEc1xH0R0dHfmWD0skErh9+3ZZ7UUWiud5Qh+Fm/lCf+T169fCNhhjZQ9YE47t7W28e/dOeK2urg4DAwNltSfdoojyemZnZ4VzpWmayOVy1+5urwRv377F4eFh0Q459wu7urrK+t6VTT2Fy85Hjx4V7Z94nof+/n5kMhktFMkQQrC+vo7t7e2ilaZt2/jwww/LrtapzJnlSt7c3MTOzk6RI2vbNm7dunVWs1UjD9d18ebNG+FZ3NHRET799NOy24wsFMdxAg8FuZKXlpbO/buQwcFBnSimANu2sbKyUvQ637y7c+dO2W0qnXoA4NmzZ74R+YODg7rqgQIsy8LCwoLQPwGAXC5XdpvKnFkulF9//RXNzc1F70ulUujt7dUhB5IhhODk5AQvXrwougkdx0Eul0Mmkym7XelCKZxiTk9PMTc3VzRgz/PQ2tqKbDarHVnJEEKwuroqPKnP5/P47LPPIrWrLD/RNE1sbGz4xnh2d3ejp6dHVffXmoWFBd9QTu6flHuDKkkA46ysrPgGU2cyGXR2dkbtXhPA8+fPfUM533///UhtRhYKfyqpCB4m8M8///gOOJ1Oo6mpKWr3mgAePnxYtE/CGEM6nUZvb2+k6T6WUEqVvXjx4oVv8PXExARM06zZIObLSNABrGVZyOVyaG5urqxQwuSf7O7uCq87joObN28CuLyPaalVFhcXhZGHjDGMjo5G3o5QlqR+dHSEg4MD4fW6ujodqKSIP//80zfqb2hoKHIGp3QfpTAGZW9vT/hU9GQyib6+vqhdawJ4+vSp8FiEnxhH3beKJRS/LEFKKVZXV7G/vy9cy09PT0eeKzX+nJ6e4vHjx0XTC2MMnZ2dZYcWFKJk6qGUYn19HcfHx0VCOTo6wr1796J2q/GBW/HT09Oi75xSitbWVvT09ERePEhf9fA835WVFV9HdXJyMmq3mgCWlpZ8NzjT6TTS6XTkxYN0i8LLm29sbPieDN+6dStqt5oAXr9+7Rsj29nZiba2tshtK5t61tbWisyc53kYGBgIjLrXRINS6lsAwDAMTExMxArpkF4Ln5eMEJWOcBwHk5OTuvy5Ao6OjrCysiJM9nIcB2NjY7Halx5czTPagGIh2baNu3fvRu1SE8D+/j4ODg6EMSipVAqjo6Ox2ld6KCj6Gx11r4adnR3hdoSsfSslh4J+729oaIitbI2Yzc1N4Qan67oYHx9HS0tLLL+wYhbF8zyMjIygo6NDn+9IhjGG5eVlYbCSbdu4f/8+DMOIVXJEuo/ih+u6GBkZ0TGyCrBtG5ubm8JrJycnmJycjJ0tGcuilGsZ4hxKafyxbRuLi4tFr3NhyPALK2ZRAKC/v1+nZ0jGMAzk83ksLy+fs9a80NHAwEBZBXN8+4k70DAwxtDe3o6RkREdda+Ara0tzM/Pn1sa88rid+7cKVlsKAwVWfUwxtDW1obu7m7tyCpgdXUVQHGSnWVZuH//PoD4tWGkhxmI4BZFB1Or4fnz577XoiR7iajY8ritrQ3t7e1Ru9MEMDs7W7RIkL1vpSS4+iKEEAwNDQkzBjXR4X7I06dPhUl2MvetpB8K+r3vvffe0xH3ClhZWRHWQXFdF0NDQ9L2rWItj8Ps9nHVxz291Ij5+++/fa/lcjlhXd8oxPJRHMcJ9biR+vp65HI5XbVaAbOzs741Znp6eqRtR8SyKGGeRMqdKl1ZST6UUjx58qTIkeVZgcPDw9Jif5SvevL5PGZmZs5KhGrkQAjB7u4uFhcXhZW9M5kMstmstH2rWBYlzIbb8fExPvnkEy0SBWxubgqrXvENTpn7VrGXx2H8jg8++CBqN5oA5ufnfX2Q9vZ2qftWyi0KIOf0UlPMy5cvhVMLpRR9fX1SCynG8lFKWRPP89Dd3Y10Oq2nHsnwOm1+KTMfffSR1P6UHgrm83l8/vnnelmsgIODA98iAIwxjI2NSb05lVoU13UxNTUVtQtNANvb23j79q3wWiqVwuDgoNT+lJ31cBFNTExE7UITwJs3b4TpGZRSNDc3S68WoaSQDvDfgOvr63Hjxg3tnyhgbW0Nu7u7vpUfZT9RRJlFsW0bY2NjaGlpidqFxgfHcbCxsSG8dnx8jHv37kn3C5XtzFJKkcvlkEqltEWRjG3bZ1FtIqanp6V/50qj8EdHR3XUvQIsy8Li4qIwUD2ZTCKbzUrvM5JQ+GNiSzmzOupePrxgjuh5gY7jYGpqKnZWoIhYkUR+8yA/a+jv74/TvEYAL2F+enpadM2yLGWP3osslKCHNVNKkU6n0dfXp/0TBczNzQlf9zwP09PTSvqMJJQwQUsdHR066l4Rs7OzvgVzVBUBiJ2u4Tf9tLe3xyoFpRFj2zb++OOPogM/z/OQzWYjlzAvhZIaboQQDA8Pl/3cOk0wPFhpbW1N+Azpmzdvor6+XolQIsXJMcZwcnIC13WFT0e3LAvj4+NnotHEh//48/Pzvtdv3LihrFpE5IDKINXW1dWhs7MTW1tbUZvX+PDo0aNzT4AtROWj95RU3TNNE19++SWA+DmvMqnmE9VFRfjCvK/w/fwxcKL4nlQqhf7+fmW5U8rKMx4cHNSUSK4KolwqSikymQwGBweFlkYGyoSi/ZPKwdMzyn06ejlEslOu62Jvb0/2WDQR4Ruc6XRaWR+RhGLbNtbW1mSPRRMRwzCQzWbR2tqqzIpHmnosy8Lc3Bxc1/V9uORVJqxjWil4/V7TNJVNPZGEks/n0dzcjKmpKWmnw0Ffdpj43HL7ipqTG7QqCYtpmmXV6C3VFmNMetT9RYjneWVLUJevqD1UL/0jWZSwGYKy0cvt6qFkZ1Zz9dBziCYUWiiaUGihaEKhhaIJhRaKJhRaKJpQaKFoQvF/HkU+Jis0zukAAAAASUVORK5CYII=;" vertex="1" parent="1">
          <mxGeometry x="242" y="23" width="35.82" height="34" as="geometry" />
        </mxCell>
        <mxCell id="Ao-p5evww3L0ZYdnTGIq-4" value="" style="shape=image;verticalLabelPosition=bottom;labelBackgroundColor=default;verticalAlign=top;aspect=fixed;imageAspect=0;image=data:image/png,iVBORw0KGgoAAAANSUhEUgAAAIoAAACDCAYAAABSiIOsAAAABHNCSVQICAgIfAhkiAAAABl0RVh0U29mdHdhcmUAZ25vbWUtc2NyZWVuc2hvdO8Dvz4AAAAtdEVYdENyZWF0aW9uIFRpbWUAVHVlIDI2IFNlcCAyMDIzIDA4OjQ3OjQwIFBNIC0wM7QwjvcAAA6+SURBVHic7Z1bbxtFG8f/s2vHOSeOc3ZzVExbSEhJlJYiJCQ+BN+i0nuBuOMSIfEFuOGaG+64Aq4qFVr1IqJFtLRJyDlp1KQ5KQfvaea9QBM58ex6vTtjO8n8JITqdWbG9n+feWbmeZ4lnucxaDQlMKo9AM3lQAtFEwotFE0otFA0odBC0YRCC0UTCi0UTSi0UDSh0ELRhEILRROKhIxGCCEymql5GGNnn5Wx63XyEUsohJBrIxJAfENcF8FEFgohBEtLS/jf//4HSikopfA8D4lEfCN18QcpvJPDIGMMflBKMT4+jm+++ebaiASIaVEsy8Jff/0Fz/PgeZ6sMdU0Jycn6OrqqvYwKk4soVBKwRhDMplUehfXEpRSNDU1XTtfJdaqx/O8a/NFFdLY2AjG2LX67LGEwr+o6/SFMcaQSqWqPYyKE3vqCUJ0110Wk+23onNdFw0NDZfmc8gillCCph7TNNHS0lIRJ/eiYIN+xFI/LCEEjDG4rgvbtouuW5aFxsbGUG1dJZQIxfM8zMzM4LvvvruUZpoxhp9++gnffvstGhoazl7nAuRCMYzqbWxX2keKJZSggaZSKfT09Jz7omudwi+/vr5eeN0wDLiui+3t7UoPLxDDMFBfX49EIoFkMim9/VhCcRynpKpL+TG1it+429vb8cMPP+DHH38s67MRQpRZIMYY2tra8PXXX2NmZkaJpZF21nOV5mvGmK9vZZomtre3a+oGoJSio6MD+Xxe2W8hRShXSSTAf5/HcRzf64ZhVNU/uQhj7GzDU5WAY33aoKnHMAyYphmn+apRSii1iOqbVcqG21WDUop8Pl/tYZSF6lN8Kc7sVfRRXNcFpRSu61Z7OOeo1pmaFKGIRGKa5qWdeggh6Orqwu3bt0P/MDzUgr+fC+ziv0tR+F0WWgnGGEzTxPr6Omzb9vWRDMNQ4qcok+dlDmhKJpN48OABHjx4UO2hFPHFF1/g8ePHFXemlZz18Ncvs1hq8TMQQqo2Fcaeeurq6opeJ4QglUpdCd+lVsZfbcHGjkcR+SGEEKGANOqpyX0U0d3GrUhdXV3V74KrSLVWPbGEYtt2kVj4cvm6hEZWirBToKqbM5ZQeMyssOEa2uK+KoQRS00KRRTYA/w3WBVH3ZrqEduiiCCEXNrNtlqnWstjZVH4iUSiZpaWV4lL6cx6nif0RSilSCaTetWjgGrFwUQWCt8l9MvH1RZFDdVaJETuNSi4V/soV49Y8nRdVy+Prwmxpx6/a1ooVwspeT0iP0VWPg8XnOo8FpGwC/u8TMIvZ6xhnePIQmGMBXYiEs/x8TEsy/JtLy5Bbahuv9z3+gk/6O8IIb6bnJRS7OzsYGlpKXROuGEYyGazoZbcsSyKn48icmYppfj+++/xyy+/+H5BpeJbSuF3pCBqOyjtlFIqFDqPYgvDxXSPi8Lw+xH90kS45bYsq2jXmxCCw8NDfPXVVzAMA7ZtwzTNwLZc10U2m8XPP/+M7u7ukp8nVsUlSqnQzImEks/n8ezZM7x69apsM65iP6ZUknmtTjVB5dAKb9xSO7iu62J4eDh0JmdkoVBKS+a+FLK/v4/9/X0kEgm9dFZEOTX1CCEYHh4OHTcUa9VTai+lcNA7Ozt49+6d3q2tEQghyGazoQ9vY224BS2PTdM8ExEhBFtbWzg8PNRCqQEYY2hqasLQ0FBo6x5r1eN3KGhZ1rmphzGGtbU17O/vC6sEcCeRO6OiwXN/KCgGphC+lxP2/bVYQ9Z1XZimeRab7Lpu6HozpmkilUoJLYbnechkMujv7w/9WZVE4Xued3YoyBiDbdtYX18XDsp1XfT29p7VRQPOb9gV5spwCttJJBKBVuri3158r2maZ+Pk/y/3hDasQ8hXIqXMPd+D4mPiN0nQVH8xhdcwDOzu7uLJkyfCqleZTCbUaoejvDQX8F+A0/LysvAH3dvbw++//46hoaE4Q9EI+O233/Dw4cMih5VXP+jo6AjdVmSheJ6Hk5MT4TUe4cbvUMuysLS0VHQnMcbQ3NyM7u5u3ztFxjRQa1NKJSCE4NWrV0LrSClFT08PGhsbQ6fUKNssKDTne3t7WFhYKPI9HMfB3bt30dDQcGZWL/6niYbjOHj58qXvhuL4+Pi5BUcplAilMGaWEIJ///1XWB0gn8/j448/VjGEc1xH0R0dHfmWD0skErh9+3ZZ7UUWiud5Qh+Fm/lCf+T169fCNhhjZQ9YE47t7W28e/dOeK2urg4DAwNltSfdoojyemZnZ4VzpWmayOVy1+5urwRv377F4eFh0Q459wu7urrK+t6VTT2Fy85Hjx4V7Z94nof+/n5kMhktFMkQQrC+vo7t7e2ilaZt2/jwww/LrtapzJnlSt7c3MTOzk6RI2vbNm7dunVWs1UjD9d18ebNG+FZ3NHRET799NOy24wsFMdxAg8FuZKXlpbO/buQwcFBnSimANu2sbKyUvQ637y7c+dO2W0qnXoA4NmzZ74R+YODg7rqgQIsy8LCwoLQPwGAXC5XdpvKnFkulF9//RXNzc1F70ulUujt7dUhB5IhhODk5AQvXrwougkdx0Eul0Mmkym7XelCKZxiTk9PMTc3VzRgz/PQ2tqKbDarHVnJEEKwuroqPKnP5/P47LPPIrWrLD/RNE1sbGz4xnh2d3ejp6dHVffXmoWFBd9QTu6flHuDKkkA46ysrPgGU2cyGXR2dkbtXhPA8+fPfUM533///UhtRhYKfyqpCB4m8M8///gOOJ1Oo6mpKWr3mgAePnxYtE/CGEM6nUZvb2+k6T6WUEqVvXjx4oVv8PXExARM06zZIObLSNABrGVZyOVyaG5urqxQwuSf7O7uCq87joObN28CuLyPaalVFhcXhZGHjDGMjo5G3o5QlqR+dHSEg4MD4fW6ujodqKSIP//80zfqb2hoKHIGp3QfpTAGZW9vT/hU9GQyib6+vqhdawJ4+vSp8FiEnxhH3beKJRS/LEFKKVZXV7G/vy9cy09PT0eeKzX+nJ6e4vHjx0XTC2MMnZ2dZYcWFKJk6qGUYn19HcfHx0VCOTo6wr1796J2q/GBW/HT09Oi75xSitbWVvT09ERePEhf9fA835WVFV9HdXJyMmq3mgCWlpZ8NzjT6TTS6XTkxYN0i8LLm29sbPieDN+6dStqt5oAXr9+7Rsj29nZiba2tshtK5t61tbWisyc53kYGBgIjLrXRINS6lsAwDAMTExMxArpkF4Ln5eMEJWOcBwHk5OTuvy5Ao6OjrCysiJM9nIcB2NjY7Halx5czTPagGIh2baNu3fvRu1SE8D+/j4ODg6EMSipVAqjo6Ox2ld6KCj6Gx11r4adnR3hdoSsfSslh4J+729oaIitbI2Yzc1N4Qan67oYHx9HS0tLLL+wYhbF8zyMjIygo6NDn+9IhjGG5eVlYbCSbdu4f/8+DMOIVXJEuo/ih+u6GBkZ0TGyCrBtG5ubm8JrJycnmJycjJ0tGcuilGsZ4hxKafyxbRuLi4tFr3NhyPALK2ZRAKC/v1+nZ0jGMAzk83ksLy+fs9a80NHAwEBZBXN8+4k70DAwxtDe3o6RkREdda+Ara0tzM/Pn1sa88rid+7cKVlsKAwVWfUwxtDW1obu7m7tyCpgdXUVQHGSnWVZuH//PoD4tWGkhxmI4BZFB1Or4fnz577XoiR7iajY8ritrQ3t7e1Ru9MEMDs7W7RIkL1vpSS4+iKEEAwNDQkzBjXR4X7I06dPhUl2MvetpB8K+r3vvffe0xH3ClhZWRHWQXFdF0NDQ9L2rWItj8Ps9nHVxz291Ij5+++/fa/lcjlhXd8oxPJRHMcJ9biR+vp65HI5XbVaAbOzs741Znp6eqRtR8SyKGGeRMqdKl1ZST6UUjx58qTIkeVZgcPDw9Jif5SvevL5PGZmZs5KhGrkQAjB7u4uFhcXhZW9M5kMstmstH2rWBYlzIbb8fExPvnkEy0SBWxubgqrXvENTpn7VrGXx2H8jg8++CBqN5oA5ufnfX2Q9vZ2qftWyi0KIOf0UlPMy5cvhVMLpRR9fX1SCynG8lFKWRPP89Dd3Y10Oq2nHsnwOm1+KTMfffSR1P6UHgrm83l8/vnnelmsgIODA98iAIwxjI2NSb05lVoU13UxNTUVtQtNANvb23j79q3wWiqVwuDgoNT+lJ31cBFNTExE7UITwJs3b4TpGZRSNDc3S68WoaSQDvDfgOvr63Hjxg3tnyhgbW0Nu7u7vpUfZT9RRJlFsW0bY2NjaGlpidqFxgfHcbCxsSG8dnx8jHv37kn3C5XtzFJKkcvlkEqltEWRjG3bZ1FtIqanp6V/50qj8EdHR3XUvQIsy8Li4qIwUD2ZTCKbzUrvM5JQ+GNiSzmzOupePrxgjuh5gY7jYGpqKnZWoIhYkUR+8yA/a+jv74/TvEYAL2F+enpadM2yLGWP3osslKCHNVNKkU6n0dfXp/0TBczNzQlf9zwP09PTSvqMJJQwQUsdHR066l4Rs7OzvgVzVBUBiJ2u4Tf9tLe3xyoFpRFj2zb++OOPogM/z/OQzWYjlzAvhZIaboQQDA8Pl/3cOk0wPFhpbW1N+Azpmzdvor6+XolQIsXJMcZwcnIC13WFT0e3LAvj4+NnotHEh//48/Pzvtdv3LihrFpE5IDKINXW1dWhs7MTW1tbUZvX+PDo0aNzT4AtROWj95RU3TNNE19++SWA+DmvMqnmE9VFRfjCvK/w/fwxcKL4nlQqhf7+fmW5U8rKMx4cHNSUSK4KolwqSikymQwGBweFlkYGyoSi/ZPKwdMzyn06ejlEslOu62Jvb0/2WDQR4Ruc6XRaWR+RhGLbNtbW1mSPRRMRwzCQzWbR2tqqzIpHmnosy8Lc3Bxc1/V9uORVJqxjWil4/V7TNJVNPZGEks/n0dzcjKmpKWmnw0Ffdpj43HL7ipqTG7QqCYtpmmXV6C3VFmNMetT9RYjneWVLUJevqD1UL/0jWZSwGYKy0cvt6qFkZ1Zz9dBziCYUWiiaUGihaEKhhaIJhRaKJhRaKJpQaKFoQvF/HkU+Jis0zukAAAAASUVORK5CYII=;" vertex="1" parent="1">
          <mxGeometry x="286" y="23" width="35.82" height="34" as="geometry" />
        </mxCell>
        <mxCell id="Ao-p5evww3L0ZYdnTGIq-7" value="" style="shape=image;verticalLabelPosition=bottom;labelBackgroundColor=default;verticalAlign=top;aspect=fixed;imageAspect=0;image=data:image/png,iVBORw0KGgoAAAANSUhEUgAAAIoAAACDCAYAAABSiIOsAAAABHNCSVQICAgIfAhkiAAAABl0RVh0U29mdHdhcmUAZ25vbWUtc2NyZWVuc2hvdO8Dvz4AAAAtdEVYdENyZWF0aW9uIFRpbWUAVHVlIDI2IFNlcCAyMDIzIDA4OjQ3OjQwIFBNIC0wM7QwjvcAAA6+SURBVHic7Z1bbxtFG8f/s2vHOSeOc3ZzVExbSEhJlJYiJCQ+BN+i0nuBuOMSIfEFuOGaG+64Aq4qFVr1IqJFtLRJyDlp1KQ5KQfvaea9QBM58ex6vTtjO8n8JITqdWbG9n+feWbmeZ4lnucxaDQlMKo9AM3lQAtFEwotFE0otFA0odBC0YRCC0UTCi0UTSi0UDSh0ELRhEILRROKhIxGCCEymql5GGNnn5Wx63XyEUsohJBrIxJAfENcF8FEFgohBEtLS/jf//4HSikopfA8D4lEfCN18QcpvJPDIGMMflBKMT4+jm+++ebaiASIaVEsy8Jff/0Fz/PgeZ6sMdU0Jycn6OrqqvYwKk4soVBKwRhDMplUehfXEpRSNDU1XTtfJdaqx/O8a/NFFdLY2AjG2LX67LGEwr+o6/SFMcaQSqWqPYyKE3vqCUJ0110Wk+23onNdFw0NDZfmc8gillCCph7TNNHS0lIRJ/eiYIN+xFI/LCEEjDG4rgvbtouuW5aFxsbGUG1dJZQIxfM8zMzM4LvvvruUZpoxhp9++gnffvstGhoazl7nAuRCMYzqbWxX2keKJZSggaZSKfT09Jz7omudwi+/vr5eeN0wDLiui+3t7UoPLxDDMFBfX49EIoFkMim9/VhCcRynpKpL+TG1it+429vb8cMPP+DHH38s67MRQpRZIMYY2tra8PXXX2NmZkaJpZF21nOV5mvGmK9vZZomtre3a+oGoJSio6MD+Xxe2W8hRShXSSTAf5/HcRzf64ZhVNU/uQhj7GzDU5WAY33aoKnHMAyYphmn+apRSii1iOqbVcqG21WDUop8Pl/tYZSF6lN8Kc7sVfRRXNcFpRSu61Z7OOeo1pmaFKGIRGKa5qWdeggh6Orqwu3bt0P/MDzUgr+fC+ziv0tR+F0WWgnGGEzTxPr6Omzb9vWRDMNQ4qcok+dlDmhKJpN48OABHjx4UO2hFPHFF1/g8ePHFXemlZz18Ncvs1hq8TMQQqo2Fcaeeurq6opeJ4QglUpdCd+lVsZfbcHGjkcR+SGEEKGANOqpyX0U0d3GrUhdXV3V74KrSLVWPbGEYtt2kVj4cvm6hEZWirBToKqbM5ZQeMyssOEa2uK+KoQRS00KRRTYA/w3WBVH3ZrqEduiiCCEXNrNtlqnWstjZVH4iUSiZpaWV4lL6cx6nif0RSilSCaTetWjgGrFwUQWCt8l9MvH1RZFDdVaJETuNSi4V/soV49Y8nRdVy+Prwmxpx6/a1ooVwspeT0iP0VWPg8XnOo8FpGwC/u8TMIvZ6xhnePIQmGMBXYiEs/x8TEsy/JtLy5Bbahuv9z3+gk/6O8IIb6bnJRS7OzsYGlpKXROuGEYyGazoZbcsSyKn48icmYppfj+++/xyy+/+H5BpeJbSuF3pCBqOyjtlFIqFDqPYgvDxXSPi8Lw+xH90kS45bYsq2jXmxCCw8NDfPXVVzAMA7ZtwzTNwLZc10U2m8XPP/+M7u7ukp8nVsUlSqnQzImEks/n8ezZM7x69apsM65iP6ZUknmtTjVB5dAKb9xSO7iu62J4eDh0JmdkoVBKS+a+FLK/v4/9/X0kEgm9dFZEOTX1CCEYHh4OHTcUa9VTai+lcNA7Ozt49+6d3q2tEQghyGazoQ9vY224BS2PTdM8ExEhBFtbWzg8PNRCqQEYY2hqasLQ0FBo6x5r1eN3KGhZ1rmphzGGtbU17O/vC6sEcCeRO6OiwXN/KCgGphC+lxP2/bVYQ9Z1XZimeRab7Lpu6HozpmkilUoJLYbnechkMujv7w/9WZVE4Xued3YoyBiDbdtYX18XDsp1XfT29p7VRQPOb9gV5spwCttJJBKBVuri3158r2maZ+Pk/y/3hDasQ8hXIqXMPd+D4mPiN0nQVH8xhdcwDOzu7uLJkyfCqleZTCbUaoejvDQX8F+A0/LysvAH3dvbw++//46hoaE4Q9EI+O233/Dw4cMih5VXP+jo6AjdVmSheJ6Hk5MT4TUe4cbvUMuysLS0VHQnMcbQ3NyM7u5u3ztFxjRQa1NKJSCE4NWrV0LrSClFT08PGhsbQ6fUKNssKDTne3t7WFhYKPI9HMfB3bt30dDQcGZWL/6niYbjOHj58qXvhuL4+Pi5BUcplAilMGaWEIJ///1XWB0gn8/j448/VjGEc1xH0R0dHfmWD0skErh9+3ZZ7UUWiud5Qh+Fm/lCf+T169fCNhhjZQ9YE47t7W28e/dOeK2urg4DAwNltSfdoojyemZnZ4VzpWmayOVy1+5urwRv377F4eFh0Q459wu7urrK+t6VTT2Fy85Hjx4V7Z94nof+/n5kMhktFMkQQrC+vo7t7e2ilaZt2/jwww/LrtapzJnlSt7c3MTOzk6RI2vbNm7dunVWs1UjD9d18ebNG+FZ3NHRET799NOy24wsFMdxAg8FuZKXlpbO/buQwcFBnSimANu2sbKyUvQ637y7c+dO2W0qnXoA4NmzZ74R+YODg7rqgQIsy8LCwoLQPwGAXC5XdpvKnFkulF9//RXNzc1F70ulUujt7dUhB5IhhODk5AQvXrwougkdx0Eul0Mmkym7XelCKZxiTk9PMTc3VzRgz/PQ2tqKbDarHVnJEEKwuroqPKnP5/P47LPPIrWrLD/RNE1sbGz4xnh2d3ejp6dHVffXmoWFBd9QTu6flHuDKkkA46ysrPgGU2cyGXR2dkbtXhPA8+fPfUM533///UhtRhYKfyqpCB4m8M8///gOOJ1Oo6mpKWr3mgAePnxYtE/CGEM6nUZvb2+k6T6WUEqVvXjx4oVv8PXExARM06zZIObLSNABrGVZyOVyaG5urqxQwuSf7O7uCq87joObN28CuLyPaalVFhcXhZGHjDGMjo5G3o5QlqR+dHSEg4MD4fW6ujodqKSIP//80zfqb2hoKHIGp3QfpTAGZW9vT/hU9GQyib6+vqhdawJ4+vSp8FiEnxhH3beKJRS/LEFKKVZXV7G/vy9cy09PT0eeKzX+nJ6e4vHjx0XTC2MMnZ2dZYcWFKJk6qGUYn19HcfHx0VCOTo6wr1796J2q/GBW/HT09Oi75xSitbWVvT09ERePEhf9fA835WVFV9HdXJyMmq3mgCWlpZ8NzjT6TTS6XTkxYN0i8LLm29sbPieDN+6dStqt5oAXr9+7Rsj29nZiba2tshtK5t61tbWisyc53kYGBgIjLrXRINS6lsAwDAMTExMxArpkF4Ln5eMEJWOcBwHk5OTuvy5Ao6OjrCysiJM9nIcB2NjY7Halx5czTPagGIh2baNu3fvRu1SE8D+/j4ODg6EMSipVAqjo6Ox2ld6KCj6Gx11r4adnR3hdoSsfSslh4J+729oaIitbI2Yzc1N4Qan67oYHx9HS0tLLL+wYhbF8zyMjIygo6NDn+9IhjGG5eVlYbCSbdu4f/8+DMOIVXJEuo/ih+u6GBkZ0TGyCrBtG5ubm8JrJycnmJycjJ0tGcuilGsZ4hxKafyxbRuLi4tFr3NhyPALK2ZRAKC/v1+nZ0jGMAzk83ksLy+fs9a80NHAwEBZBXN8+4k70DAwxtDe3o6RkREdda+Ara0tzM/Pn1sa88rid+7cKVlsKAwVWfUwxtDW1obu7m7tyCpgdXUVQHGSnWVZuH//PoD4tWGkhxmI4BZFB1Or4fnz577XoiR7iajY8ritrQ3t7e1Ru9MEMDs7W7RIkL1vpSS4+iKEEAwNDQkzBjXR4X7I06dPhUl2MvetpB8K+r3vvffe0xH3ClhZWRHWQXFdF0NDQ9L2rWItj8Ps9nHVxz291Ij5+++/fa/lcjlhXd8oxPJRHMcJ9biR+vp65HI5XbVaAbOzs741Znp6eqRtR8SyKGGeRMqdKl1ZST6UUjx58qTIkeVZgcPDw9Jif5SvevL5PGZmZs5KhGrkQAjB7u4uFhcXhZW9M5kMstmstH2rWBYlzIbb8fExPvnkEy0SBWxubgqrXvENTpn7VrGXx2H8jg8++CBqN5oA5ufnfX2Q9vZ2qftWyi0KIOf0UlPMy5cvhVMLpRR9fX1SCynG8lFKWRPP89Dd3Y10Oq2nHsnwOm1+KTMfffSR1P6UHgrm83l8/vnnelmsgIODA98iAIwxjI2NSb05lVoU13UxNTUVtQtNANvb23j79q3wWiqVwuDgoNT+lJ31cBFNTExE7UITwJs3b4TpGZRSNDc3S68WoaSQDvDfgOvr63Hjxg3tnyhgbW0Nu7u7vpUfZT9RRJlFsW0bY2NjaGlpidqFxgfHcbCxsSG8dnx8jHv37kn3C5XtzFJKkcvlkEqltEWRjG3bZ1FtIqanp6V/50qj8EdHR3XUvQIsy8Li4qIwUD2ZTCKbzUrvM5JQ+GNiSzmzOupePrxgjuh5gY7jYGpqKnZWoIhYkUR+8yA/a+jv74/TvEYAL2F+enpadM2yLGWP3osslKCHNVNKkU6n0dfXp/0TBczNzQlf9zwP09PTSvqMJJQwQUsdHR066l4Rs7OzvgVzVBUBiJ2u4Tf9tLe3xyoFpRFj2zb++OOPogM/z/OQzWYjlzAvhZIaboQQDA8Pl/3cOk0wPFhpbW1N+Azpmzdvor6+XolQIsXJMcZwcnIC13WFT0e3LAvj4+NnotHEh//48/Pzvtdv3LihrFpE5IDKINXW1dWhs7MTW1tbUZvX+PDo0aNzT4AtROWj95RU3TNNE19++SWA+DmvMqnmE9VFRfjCvK/w/fwxcKL4nlQqhf7+fmW5U8rKMx4cHNSUSK4KolwqSikymQwGBweFlkYGyoSi/ZPKwdMzyn06ejlEslOu62Jvb0/2WDQR4Ruc6XRaWR+RhGLbNtbW1mSPRRMRwzCQzWbR2tqqzIpHmnosy8Lc3Bxc1/V9uORVJqxjWil4/V7TNJVNPZGEks/n0dzcjKmpKWmnw0Ffdpj43HL7ipqTG7QqCYtpmmXV6C3VFmNMetT9RYjneWVLUJevqD1UL/0jWZSwGYKy0cvt6qFkZ1Zz9dBziCYUWiiaUGihaEKhhaIJhRaKJhRaKJpQaKFoQvF/HkU+Jis0zukAAAAASUVORK5CYII=;" vertex="1" parent="1">
          <mxGeometry x="335" y="23" width="35.82" height="34" as="geometry" />
        </mxCell>
        <mxCell id="Ao-p5evww3L0ZYdnTGIq-8" value="" style="shape=image;verticalLabelPosition=bottom;labelBackgroundColor=default;verticalAlign=top;aspect=fixed;imageAspect=0;image=data:image/png,iVBORw0KGgoAAAANSUhEUgAAAIoAAACDCAYAAABSiIOsAAAABHNCSVQICAgIfAhkiAAAABl0RVh0U29mdHdhcmUAZ25vbWUtc2NyZWVuc2hvdO8Dvz4AAAAtdEVYdENyZWF0aW9uIFRpbWUAVHVlIDI2IFNlcCAyMDIzIDA4OjQ3OjQwIFBNIC0wM7QwjvcAAA6+SURBVHic7Z1bbxtFG8f/s2vHOSeOc3ZzVExbSEhJlJYiJCQ+BN+i0nuBuOMSIfEFuOGaG+64Aq4qFVr1IqJFtLRJyDlp1KQ5KQfvaea9QBM58ex6vTtjO8n8JITqdWbG9n+feWbmeZ4lnucxaDQlMKo9AM3lQAtFEwotFE0otFA0odBC0YRCC0UTCi0UTSi0UDSh0ELRhEILRROKhIxGCCEymql5GGNnn5Wx63XyEUsohJBrIxJAfENcF8FEFgohBEtLS/jf//4HSikopfA8D4lEfCN18QcpvJPDIGMMflBKMT4+jm+++ebaiASIaVEsy8Jff/0Fz/PgeZ6sMdU0Jycn6OrqqvYwKk4soVBKwRhDMplUehfXEpRSNDU1XTtfJdaqx/O8a/NFFdLY2AjG2LX67LGEwr+o6/SFMcaQSqWqPYyKE3vqCUJ0110Wk+23onNdFw0NDZfmc8gillCCph7TNNHS0lIRJ/eiYIN+xFI/LCEEjDG4rgvbtouuW5aFxsbGUG1dJZQIxfM8zMzM4LvvvruUZpoxhp9++gnffvstGhoazl7nAuRCMYzqbWxX2keKJZSggaZSKfT09Jz7omudwi+/vr5eeN0wDLiui+3t7UoPLxDDMFBfX49EIoFkMim9/VhCcRynpKpL+TG1it+429vb8cMPP+DHH38s67MRQpRZIMYY2tra8PXXX2NmZkaJpZF21nOV5mvGmK9vZZomtre3a+oGoJSio6MD+Xxe2W8hRShXSSTAf5/HcRzf64ZhVNU/uQhj7GzDU5WAY33aoKnHMAyYphmn+apRSii1iOqbVcqG21WDUop8Pl/tYZSF6lN8Kc7sVfRRXNcFpRSu61Z7OOeo1pmaFKGIRGKa5qWdeggh6Orqwu3bt0P/MDzUgr+fC+ziv0tR+F0WWgnGGEzTxPr6Omzb9vWRDMNQ4qcok+dlDmhKJpN48OABHjx4UO2hFPHFF1/g8ePHFXemlZz18Ncvs1hq8TMQQqo2Fcaeeurq6opeJ4QglUpdCd+lVsZfbcHGjkcR+SGEEKGANOqpyX0U0d3GrUhdXV3V74KrSLVWPbGEYtt2kVj4cvm6hEZWirBToKqbM5ZQeMyssOEa2uK+KoQRS00KRRTYA/w3WBVH3ZrqEduiiCCEXNrNtlqnWstjZVH4iUSiZpaWV4lL6cx6nif0RSilSCaTetWjgGrFwUQWCt8l9MvH1RZFDdVaJETuNSi4V/soV49Y8nRdVy+Prwmxpx6/a1ooVwspeT0iP0VWPg8XnOo8FpGwC/u8TMIvZ6xhnePIQmGMBXYiEs/x8TEsy/JtLy5Bbahuv9z3+gk/6O8IIb6bnJRS7OzsYGlpKXROuGEYyGazoZbcsSyKn48icmYppfj+++/xyy+/+H5BpeJbSuF3pCBqOyjtlFIqFDqPYgvDxXSPi8Lw+xH90kS45bYsq2jXmxCCw8NDfPXVVzAMA7ZtwzTNwLZc10U2m8XPP/+M7u7ukp8nVsUlSqnQzImEks/n8ezZM7x69apsM65iP6ZUknmtTjVB5dAKb9xSO7iu62J4eDh0JmdkoVBKS+a+FLK/v4/9/X0kEgm9dFZEOTX1CCEYHh4OHTcUa9VTai+lcNA7Ozt49+6d3q2tEQghyGazoQ9vY224BS2PTdM8ExEhBFtbWzg8PNRCqQEYY2hqasLQ0FBo6x5r1eN3KGhZ1rmphzGGtbU17O/vC6sEcCeRO6OiwXN/KCgGphC+lxP2/bVYQ9Z1XZimeRab7Lpu6HozpmkilUoJLYbnechkMujv7w/9WZVE4Xued3YoyBiDbdtYX18XDsp1XfT29p7VRQPOb9gV5spwCttJJBKBVuri3158r2maZ+Pk/y/3hDasQ8hXIqXMPd+D4mPiN0nQVH8xhdcwDOzu7uLJkyfCqleZTCbUaoejvDQX8F+A0/LysvAH3dvbw++//46hoaE4Q9EI+O233/Dw4cMih5VXP+jo6AjdVmSheJ6Hk5MT4TUe4cbvUMuysLS0VHQnMcbQ3NyM7u5u3ztFxjRQa1NKJSCE4NWrV0LrSClFT08PGhsbQ6fUKNssKDTne3t7WFhYKPI9HMfB3bt30dDQcGZWL/6niYbjOHj58qXvhuL4+Pi5BUcplAilMGaWEIJ///1XWB0gn8/j448/VjGEc1xH0R0dHfmWD0skErh9+3ZZ7UUWiud5Qh+Fm/lCf+T169fCNhhjZQ9YE47t7W28e/dOeK2urg4DAwNltSfdoojyemZnZ4VzpWmayOVy1+5urwRv377F4eFh0Q459wu7urrK+t6VTT2Fy85Hjx4V7Z94nof+/n5kMhktFMkQQrC+vo7t7e2ilaZt2/jwww/LrtapzJnlSt7c3MTOzk6RI2vbNm7dunVWs1UjD9d18ebNG+FZ3NHRET799NOy24wsFMdxAg8FuZKXlpbO/buQwcFBnSimANu2sbKyUvQ637y7c+dO2W0qnXoA4NmzZ74R+YODg7rqgQIsy8LCwoLQPwGAXC5XdpvKnFkulF9//RXNzc1F70ulUujt7dUhB5IhhODk5AQvXrwougkdx0Eul0Mmkym7XelCKZxiTk9PMTc3VzRgz/PQ2tqKbDarHVnJEEKwuroqPKnP5/P47LPPIrWrLD/RNE1sbGz4xnh2d3ejp6dHVffXmoWFBd9QTu6flHuDKkkA46ysrPgGU2cyGXR2dkbtXhPA8+fPfUM533///UhtRhYKfyqpCB4m8M8///gOOJ1Oo6mpKWr3mgAePnxYtE/CGEM6nUZvb2+k6T6WUEqVvXjx4oVv8PXExARM06zZIObLSNABrGVZyOVyaG5urqxQwuSf7O7uCq87joObN28CuLyPaalVFhcXhZGHjDGMjo5G3o5QlqR+dHSEg4MD4fW6ujodqKSIP//80zfqb2hoKHIGp3QfpTAGZW9vT/hU9GQyib6+vqhdawJ4+vSp8FiEnxhH3beKJRS/LEFKKVZXV7G/vy9cy09PT0eeKzX+nJ6e4vHjx0XTC2MMnZ2dZYcWFKJk6qGUYn19HcfHx0VCOTo6wr1796J2q/GBW/HT09Oi75xSitbWVvT09ERePEhf9fA835WVFV9HdXJyMmq3mgCWlpZ8NzjT6TTS6XTkxYN0i8LLm29sbPieDN+6dStqt5oAXr9+7Rsj29nZiba2tshtK5t61tbWisyc53kYGBgIjLrXRINS6lsAwDAMTExMxArpkF4Ln5eMEJWOcBwHk5OTuvy5Ao6OjrCysiJM9nIcB2NjY7Halx5czTPagGIh2baNu3fvRu1SE8D+/j4ODg6EMSipVAqjo6Ox2ld6KCj6Gx11r4adnR3hdoSsfSslh4J+729oaIitbI2Yzc1N4Qan67oYHx9HS0tLLL+wYhbF8zyMjIygo6NDn+9IhjGG5eVlYbCSbdu4f/8+DMOIVXJEuo/ih+u6GBkZ0TGyCrBtG5ubm8JrJycnmJycjJ0tGcuilGsZ4hxKafyxbRuLi4tFr3NhyPALK2ZRAKC/v1+nZ0jGMAzk83ksLy+fs9a80NHAwEBZBXN8+4k70DAwxtDe3o6RkREdda+Ara0tzM/Pn1sa88rid+7cKVlsKAwVWfUwxtDW1obu7m7tyCpgdXUVQHGSnWVZuH//PoD4tWGkhxmI4BZFB1Or4fnz577XoiR7iajY8ritrQ3t7e1Ru9MEMDs7W7RIkL1vpSS4+iKEEAwNDQkzBjXR4X7I06dPhUl2MvetpB8K+r3vvffe0xH3ClhZWRHWQXFdF0NDQ9L2rWItj8Ps9nHVxz291Ij5+++/fa/lcjlhXd8oxPJRHMcJ9biR+vp65HI5XbVaAbOzs741Znp6eqRtR8SyKGGeRMqdKl1ZST6UUjx58qTIkeVZgcPDw9Jif5SvevL5PGZmZs5KhGrkQAjB7u4uFhcXhZW9M5kMstmstH2rWBYlzIbb8fExPvnkEy0SBWxubgqrXvENTpn7VrGXx2H8jg8++CBqN5oA5ufnfX2Q9vZ2qftWyi0KIOf0UlPMy5cvhVMLpRR9fX1SCynG8lFKWRPP89Dd3Y10Oq2nHsnwOm1+KTMfffSR1P6UHgrm83l8/vnnelmsgIODA98iAIwxjI2NSb05lVoU13UxNTUVtQtNANvb23j79q3wWiqVwuDgoNT+lJ31cBFNTExE7UITwJs3b4TpGZRSNDc3S68WoaSQDvDfgOvr63Hjxg3tnyhgbW0Nu7u7vpUfZT9RRJlFsW0bY2NjaGlpidqFxgfHcbCxsSG8dnx8jHv37kn3C5XtzFJKkcvlkEqltEWRjG3bZ1FtIqanp6V/50qj8EdHR3XUvQIsy8Li4qIwUD2ZTCKbzUrvM5JQ+GNiSzmzOupePrxgjuh5gY7jYGpqKnZWoIhYkUR+8yA/a+jv74/TvEYAL2F+enpadM2yLGWP3osslKCHNVNKkU6n0dfXp/0TBczNzQlf9zwP09PTSvqMJJQwQUsdHR066l4Rs7OzvgVzVBUBiJ2u4Tf9tLe3xyoFpRFj2zb++OOPogM/z/OQzWYjlzAvhZIaboQQDA8Pl/3cOk0wPFhpbW1N+Azpmzdvor6+XolQIsXJMcZwcnIC13WFT0e3LAvj4+NnotHEh//48/Pzvtdv3LihrFpE5IDKINXW1dWhs7MTW1tbUZvX+PDo0aNzT4AtROWj95RU3TNNE19++SWA+DmvMqnmE9VFRfjCvK/w/fwxcKL4nlQqhf7+fmW5U8rKMx4cHNSUSK4KolwqSikymQwGBweFlkYGyoSi/ZPKwdMzyn06ejlEslOu62Jvb0/2WDQR4Ruc6XRaWR+RhGLbNtbW1mSPRRMRwzCQzWbR2tqqzIpHmnosy8Lc3Bxc1/V9uORVJqxjWil4/V7TNJVNPZGEks/n0dzcjKmpKWmnw0Ffdpj43HL7ipqTG7QqCYtpmmXV6C3VFmNMetT9RYjneWVLUJevqD1UL/0jWZSwGYKy0cvt6qFkZ1Zz9dBziCYUWiiaUGihaEKhhaIJhRaKJhRaKJpQaKFoQvF/HkU+Jis0zukAAAAASUVORK5CYII=;" vertex="1" parent="1">
          <mxGeometry x="379" y="23" width="35.82" height="34" as="geometry" />
        </mxCell>
        <mxCell id="Ao-p5evww3L0ZYdnTGIq-9" value="" style="shape=image;verticalLabelPosition=bottom;labelBackgroundColor=default;verticalAlign=top;aspect=fixed;imageAspect=0;image=data:image/png,iVBORw0KGgoAAAANSUhEUgAAAIoAAACDCAYAAABSiIOsAAAABHNCSVQICAgIfAhkiAAAABl0RVh0U29mdHdhcmUAZ25vbWUtc2NyZWVuc2hvdO8Dvz4AAAAtdEVYdENyZWF0aW9uIFRpbWUAVHVlIDI2IFNlcCAyMDIzIDA4OjQ3OjQwIFBNIC0wM7QwjvcAAA6+SURBVHic7Z1bbxtFG8f/s2vHOSeOc3ZzVExbSEhJlJYiJCQ+BN+i0nuBuOMSIfEFuOGaG+64Aq4qFVr1IqJFtLRJyDlp1KQ5KQfvaea9QBM58ex6vTtjO8n8JITqdWbG9n+feWbmeZ4lnucxaDQlMKo9AM3lQAtFEwotFE0otFA0odBC0YRCC0UTCi0UTSi0UDSh0ELRhEILRROKhIxGCCEymql5GGNnn5Wx63XyEUsohJBrIxJAfENcF8FEFgohBEtLS/jf//4HSikopfA8D4lEfCN18QcpvJPDIGMMflBKMT4+jm+++ebaiASIaVEsy8Jff/0Fz/PgeZ6sMdU0Jycn6OrqqvYwKk4soVBKwRhDMplUehfXEpRSNDU1XTtfJdaqx/O8a/NFFdLY2AjG2LX67LGEwr+o6/SFMcaQSqWqPYyKE3vqCUJ0110Wk+23onNdFw0NDZfmc8gillCCph7TNNHS0lIRJ/eiYIN+xFI/LCEEjDG4rgvbtouuW5aFxsbGUG1dJZQIxfM8zMzM4LvvvruUZpoxhp9++gnffvstGhoazl7nAuRCMYzqbWxX2keKJZSggaZSKfT09Jz7omudwi+/vr5eeN0wDLiui+3t7UoPLxDDMFBfX49EIoFkMim9/VhCcRynpKpL+TG1it+429vb8cMPP+DHH38s67MRQpRZIMYY2tra8PXXX2NmZkaJpZF21nOV5mvGmK9vZZomtre3a+oGoJSio6MD+Xxe2W8hRShXSSTAf5/HcRzf64ZhVNU/uQhj7GzDU5WAY33aoKnHMAyYphmn+apRSii1iOqbVcqG21WDUop8Pl/tYZSF6lN8Kc7sVfRRXNcFpRSu61Z7OOeo1pmaFKGIRGKa5qWdeggh6Orqwu3bt0P/MDzUgr+fC+ziv0tR+F0WWgnGGEzTxPr6Omzb9vWRDMNQ4qcok+dlDmhKJpN48OABHjx4UO2hFPHFF1/g8ePHFXemlZz18Ncvs1hq8TMQQqo2Fcaeeurq6opeJ4QglUpdCd+lVsZfbcHGjkcR+SGEEKGANOqpyX0U0d3GrUhdXV3V74KrSLVWPbGEYtt2kVj4cvm6hEZWirBToKqbM5ZQeMyssOEa2uK+KoQRS00KRRTYA/w3WBVH3ZrqEduiiCCEXNrNtlqnWstjZVH4iUSiZpaWV4lL6cx6nif0RSilSCaTetWjgGrFwUQWCt8l9MvH1RZFDdVaJETuNSi4V/soV49Y8nRdVy+Prwmxpx6/a1ooVwspeT0iP0VWPg8XnOo8FpGwC/u8TMIvZ6xhnePIQmGMBXYiEs/x8TEsy/JtLy5Bbahuv9z3+gk/6O8IIb6bnJRS7OzsYGlpKXROuGEYyGazoZbcsSyKn48icmYppfj+++/xyy+/+H5BpeJbSuF3pCBqOyjtlFIqFDqPYgvDxXSPi8Lw+xH90kS45bYsq2jXmxCCw8NDfPXVVzAMA7ZtwzTNwLZc10U2m8XPP/+M7u7ukp8nVsUlSqnQzImEks/n8ezZM7x69apsM65iP6ZUknmtTjVB5dAKb9xSO7iu62J4eDh0JmdkoVBKS+a+FLK/v4/9/X0kEgm9dFZEOTX1CCEYHh4OHTcUa9VTai+lcNA7Ozt49+6d3q2tEQghyGazoQ9vY224BS2PTdM8ExEhBFtbWzg8PNRCqQEYY2hqasLQ0FBo6x5r1eN3KGhZ1rmphzGGtbU17O/vC6sEcCeRO6OiwXN/KCgGphC+lxP2/bVYQ9Z1XZimeRab7Lpu6HozpmkilUoJLYbnechkMujv7w/9WZVE4Xued3YoyBiDbdtYX18XDsp1XfT29p7VRQPOb9gV5spwCttJJBKBVuri3158r2maZ+Pk/y/3hDasQ8hXIqXMPd+D4mPiN0nQVH8xhdcwDOzu7uLJkyfCqleZTCbUaoejvDQX8F+A0/LysvAH3dvbw++//46hoaE4Q9EI+O233/Dw4cMih5VXP+jo6AjdVmSheJ6Hk5MT4TUe4cbvUMuysLS0VHQnMcbQ3NyM7u5u3ztFxjRQa1NKJSCE4NWrV0LrSClFT08PGhsbQ6fUKNssKDTne3t7WFhYKPI9HMfB3bt30dDQcGZWL/6niYbjOHj58qXvhuL4+Pi5BUcplAilMGaWEIJ///1XWB0gn8/j448/VjGEc1xH0R0dHfmWD0skErh9+3ZZ7UUWiud5Qh+Fm/lCf+T169fCNhhjZQ9YE47t7W28e/dOeK2urg4DAwNltSfdoojyemZnZ4VzpWmayOVy1+5urwRv377F4eFh0Q459wu7urrK+t6VTT2Fy85Hjx4V7Z94nof+/n5kMhktFMkQQrC+vo7t7e2ilaZt2/jwww/LrtapzJnlSt7c3MTOzk6RI2vbNm7dunVWs1UjD9d18ebNG+FZ3NHRET799NOy24wsFMdxAg8FuZKXlpbO/buQwcFBnSimANu2sbKyUvQ637y7c+dO2W0qnXoA4NmzZ74R+YODg7rqgQIsy8LCwoLQPwGAXC5XdpvKnFkulF9//RXNzc1F70ulUujt7dUhB5IhhODk5AQvXrwougkdx0Eul0Mmkym7XelCKZxiTk9PMTc3VzRgz/PQ2tqKbDarHVnJEEKwuroqPKnP5/P47LPPIrWrLD/RNE1sbGz4xnh2d3ejp6dHVffXmoWFBd9QTu6flHuDKkkA46ysrPgGU2cyGXR2dkbtXhPA8+fPfUM533///UhtRhYKfyqpCB4m8M8///gOOJ1Oo6mpKWr3mgAePnxYtE/CGEM6nUZvb2+k6T6WUEqVvXjx4oVv8PXExARM06zZIObLSNABrGVZyOVyaG5urqxQwuSf7O7uCq87joObN28CuLyPaalVFhcXhZGHjDGMjo5G3o5QlqR+dHSEg4MD4fW6ujodqKSIP//80zfqb2hoKHIGp3QfpTAGZW9vT/hU9GQyib6+vqhdawJ4+vSp8FiEnxhH3beKJRS/LEFKKVZXV7G/vy9cy09PT0eeKzX+nJ6e4vHjx0XTC2MMnZ2dZYcWFKJk6qGUYn19HcfHx0VCOTo6wr1796J2q/GBW/HT09Oi75xSitbWVvT09ERePEhf9fA835WVFV9HdXJyMmq3mgCWlpZ8NzjT6TTS6XTkxYN0i8LLm29sbPieDN+6dStqt5oAXr9+7Rsj29nZiba2tshtK5t61tbWisyc53kYGBgIjLrXRINS6lsAwDAMTExMxArpkF4Ln5eMEJWOcBwHk5OTuvy5Ao6OjrCysiJM9nIcB2NjY7Halx5czTPagGIh2baNu3fvRu1SE8D+/j4ODg6EMSipVAqjo6Ox2ld6KCj6Gx11r4adnR3hdoSsfSslh4J+729oaIitbI2Yzc1N4Qan67oYHx9HS0tLLL+wYhbF8zyMjIygo6NDn+9IhjGG5eVlYbCSbdu4f/8+DMOIVXJEuo/ih+u6GBkZ0TGyCrBtG5ubm8JrJycnmJycjJ0tGcuilGsZ4hxKafyxbRuLi4tFr3NhyPALK2ZRAKC/v1+nZ0jGMAzk83ksLy+fs9a80NHAwEBZBXN8+4k70DAwxtDe3o6RkREdda+Ara0tzM/Pn1sa88rid+7cKVlsKAwVWfUwxtDW1obu7m7tyCpgdXUVQHGSnWVZuH//PoD4tWGkhxmI4BZFB1Or4fnz577XoiR7iajY8ritrQ3t7e1Ru9MEMDs7W7RIkL1vpSS4+iKEEAwNDQkzBjXR4X7I06dPhUl2MvetpB8K+r3vvffe0xH3ClhZWRHWQXFdF0NDQ9L2rWItj8Ps9nHVxz291Ij5+++/fa/lcjlhXd8oxPJRHMcJ9biR+vp65HI5XbVaAbOzs741Znp6eqRtR8SyKGGeRMqdKl1ZST6UUjx58qTIkeVZgcPDw9Jif5SvevL5PGZmZs5KhGrkQAjB7u4uFhcXhZW9M5kMstmstH2rWBYlzIbb8fExPvnkEy0SBWxubgqrXvENTpn7VrGXx2H8jg8++CBqN5oA5ufnfX2Q9vZ2qftWyi0KIOf0UlPMy5cvhVMLpRR9fX1SCynG8lFKWRPP89Dd3Y10Oq2nHsnwOm1+KTMfffSR1P6UHgrm83l8/vnnelmsgIODA98iAIwxjI2NSb05lVoU13UxNTUVtQtNANvb23j79q3wWiqVwuDgoNT+lJ31cBFNTExE7UITwJs3b4TpGZRSNDc3S68WoaSQDvDfgOvr63Hjxg3tnyhgbW0Nu7u7vpUfZT9RRJlFsW0bY2NjaGlpidqFxgfHcbCxsSG8dnx8jHv37kn3C5XtzFJKkcvlkEqltEWRjG3bZ1FtIqanp6V/50qj8EdHR3XUvQIsy8Li4qIwUD2ZTCKbzUrvM5JQ+GNiSzmzOupePrxgjuh5gY7jYGpqKnZWoIhYkUR+8yA/a+jv74/TvEYAL2F+enpadM2yLGWP3osslKCHNVNKkU6n0dfXp/0TBczNzQlf9zwP09PTSvqMJJQwQUsdHR066l4Rs7OzvgVzVBUBiJ2u4Tf9tLe3xyoFpRFj2zb++OOPogM/z/OQzWYjlzAvhZIaboQQDA8Pl/3cOk0wPFhpbW1N+Azpmzdvor6+XolQIsXJMcZwcnIC13WFT0e3LAvj4+NnotHEh//48/Pzvtdv3LihrFpE5IDKINXW1dWhs7MTW1tbUZvX+PDo0aNzT4AtROWj95RU3TNNE19++SWA+DmvMqnmE9VFRfjCvK/w/fwxcKL4nlQqhf7+fmW5U8rKMx4cHNSUSK4KolwqSikymQwGBweFlkYGyoSi/ZPKwdMzyn06ejlEslOu62Jvb0/2WDQR4Ruc6XRaWR+RhGLbNtbW1mSPRRMRwzCQzWbR2tqqzIpHmnosy8Lc3Bxc1/V9uORVJqxjWil4/V7TNJVNPZGEks/n0dzcjKmpKWmnw0Ffdpj43HL7ipqTG7QqCYtpmmXV6C3VFmNMetT9RYjneWVLUJevqD1UL/0jWZSwGYKy0cvt6qFkZ1Zz9dBziCYUWiiaUGihaEKhhaIJhRaKJhRaKJpQaKFoQvF/HkU+Jis0zukAAAAASUVORK5CYII=;" vertex="1" parent="1">
          <mxGeometry x="242" y="70" width="35.82" height="34" as="geometry" />
        </mxCell>
        <mxCell id="Ao-p5evww3L0ZYdnTGIq-10" value="" style="shape=image;verticalLabelPosition=bottom;labelBackgroundColor=default;verticalAlign=top;aspect=fixed;imageAspect=0;image=data:image/png,iVBORw0KGgoAAAANSUhEUgAAAIoAAACDCAYAAABSiIOsAAAABHNCSVQICAgIfAhkiAAAABl0RVh0U29mdHdhcmUAZ25vbWUtc2NyZWVuc2hvdO8Dvz4AAAAtdEVYdENyZWF0aW9uIFRpbWUAVHVlIDI2IFNlcCAyMDIzIDA4OjQ3OjQwIFBNIC0wM7QwjvcAAA6+SURBVHic7Z1bbxtFG8f/s2vHOSeOc3ZzVExbSEhJlJYiJCQ+BN+i0nuBuOMSIfEFuOGaG+64Aq4qFVr1IqJFtLRJyDlp1KQ5KQfvaea9QBM58ex6vTtjO8n8JITqdWbG9n+feWbmeZ4lnucxaDQlMKo9AM3lQAtFEwotFE0otFA0odBC0YRCC0UTCi0UTSi0UDSh0ELRhEILRROKhIxGCCEymql5GGNnn5Wx63XyEUsohJBrIxJAfENcF8FEFgohBEtLS/jf//4HSikopfA8D4lEfCN18QcpvJPDIGMMflBKMT4+jm+++ebaiASIaVEsy8Jff/0Fz/PgeZ6sMdU0Jycn6OrqqvYwKk4soVBKwRhDMplUehfXEpRSNDU1XTtfJdaqx/O8a/NFFdLY2AjG2LX67LGEwr+o6/SFMcaQSqWqPYyKE3vqCUJ0110Wk+23onNdFw0NDZfmc8gillCCph7TNNHS0lIRJ/eiYIN+xFI/LCEEjDG4rgvbtouuW5aFxsbGUG1dJZQIxfM8zMzM4LvvvruUZpoxhp9++gnffvstGhoazl7nAuRCMYzqbWxX2keKJZSggaZSKfT09Jz7omudwi+/vr5eeN0wDLiui+3t7UoPLxDDMFBfX49EIoFkMim9/VhCcRynpKpL+TG1it+429vb8cMPP+DHH38s67MRQpRZIMYY2tra8PXXX2NmZkaJpZF21nOV5mvGmK9vZZomtre3a+oGoJSio6MD+Xxe2W8hRShXSSTAf5/HcRzf64ZhVNU/uQhj7GzDU5WAY33aoKnHMAyYphmn+apRSii1iOqbVcqG21WDUop8Pl/tYZSF6lN8Kc7sVfRRXNcFpRSu61Z7OOeo1pmaFKGIRGKa5qWdeggh6Orqwu3bt0P/MDzUgr+fC+ziv0tR+F0WWgnGGEzTxPr6Omzb9vWRDMNQ4qcok+dlDmhKJpN48OABHjx4UO2hFPHFF1/g8ePHFXemlZz18Ncvs1hq8TMQQqo2Fcaeeurq6opeJ4QglUpdCd+lVsZfbcHGjkcR+SGEEKGANOqpyX0U0d3GrUhdXV3V74KrSLVWPbGEYtt2kVj4cvm6hEZWirBToKqbM5ZQeMyssOEa2uK+KoQRS00KRRTYA/w3WBVH3ZrqEduiiCCEXNrNtlqnWstjZVH4iUSiZpaWV4lL6cx6nif0RSilSCaTetWjgGrFwUQWCt8l9MvH1RZFDdVaJETuNSi4V/soV49Y8nRdVy+Prwmxpx6/a1ooVwspeT0iP0VWPg8XnOo8FpGwC/u8TMIvZ6xhnePIQmGMBXYiEs/x8TEsy/JtLy5Bbahuv9z3+gk/6O8IIb6bnJRS7OzsYGlpKXROuGEYyGazoZbcsSyKn48icmYppfj+++/xyy+/+H5BpeJbSuF3pCBqOyjtlFIqFDqPYgvDxXSPi8Lw+xH90kS45bYsq2jXmxCCw8NDfPXVVzAMA7ZtwzTNwLZc10U2m8XPP/+M7u7ukp8nVsUlSqnQzImEks/n8ezZM7x69apsM65iP6ZUknmtTjVB5dAKb9xSO7iu62J4eDh0JmdkoVBKS+a+FLK/v4/9/X0kEgm9dFZEOTX1CCEYHh4OHTcUa9VTai+lcNA7Ozt49+6d3q2tEQghyGazoQ9vY224BS2PTdM8ExEhBFtbWzg8PNRCqQEYY2hqasLQ0FBo6x5r1eN3KGhZ1rmphzGGtbU17O/vC6sEcCeRO6OiwXN/KCgGphC+lxP2/bVYQ9Z1XZimeRab7Lpu6HozpmkilUoJLYbnechkMujv7w/9WZVE4Xued3YoyBiDbdtYX18XDsp1XfT29p7VRQPOb9gV5spwCttJJBKBVuri3158r2maZ+Pk/y/3hDasQ8hXIqXMPd+D4mPiN0nQVH8xhdcwDOzu7uLJkyfCqleZTCbUaoejvDQX8F+A0/LysvAH3dvbw++//46hoaE4Q9EI+O233/Dw4cMih5VXP+jo6AjdVmSheJ6Hk5MT4TUe4cbvUMuysLS0VHQnMcbQ3NyM7u5u3ztFxjRQa1NKJSCE4NWrV0LrSClFT08PGhsbQ6fUKNssKDTne3t7WFhYKPI9HMfB3bt30dDQcGZWL/6niYbjOHj58qXvhuL4+Pi5BUcplAilMGaWEIJ///1XWB0gn8/j448/VjGEc1xH0R0dHfmWD0skErh9+3ZZ7UUWiud5Qh+Fm/lCf+T169fCNhhjZQ9YE47t7W28e/dOeK2urg4DAwNltSfdoojyemZnZ4VzpWmayOVy1+5urwRv377F4eFh0Q459wu7urrK+t6VTT2Fy85Hjx4V7Z94nof+/n5kMhktFMkQQrC+vo7t7e2ilaZt2/jwww/LrtapzJnlSt7c3MTOzk6RI2vbNm7dunVWs1UjD9d18ebNG+FZ3NHRET799NOy24wsFMdxAg8FuZKXlpbO/buQwcFBnSimANu2sbKyUvQ637y7c+dO2W0qnXoA4NmzZ74R+YODg7rqgQIsy8LCwoLQPwGAXC5XdpvKnFkulF9//RXNzc1F70ulUujt7dUhB5IhhODk5AQvXrwougkdx0Eul0Mmkym7XelCKZxiTk9PMTc3VzRgz/PQ2tqKbDarHVnJEEKwuroqPKnP5/P47LPPIrWrLD/RNE1sbGz4xnh2d3ejp6dHVffXmoWFBd9QTu6flHuDKkkA46ysrPgGU2cyGXR2dkbtXhPA8+fPfUM533///UhtRhYKfyqpCB4m8M8///gOOJ1Oo6mpKWr3mgAePnxYtE/CGEM6nUZvb2+k6T6WUEqVvXjx4oVv8PXExARM06zZIObLSNABrGVZyOVyaG5urqxQwuSf7O7uCq87joObN28CuLyPaalVFhcXhZGHjDGMjo5G3o5QlqR+dHSEg4MD4fW6ujodqKSIP//80zfqb2hoKHIGp3QfpTAGZW9vT/hU9GQyib6+vqhdawJ4+vSp8FiEnxhH3beKJRS/LEFKKVZXV7G/vy9cy09PT0eeKzX+nJ6e4vHjx0XTC2MMnZ2dZYcWFKJk6qGUYn19HcfHx0VCOTo6wr1796J2q/GBW/HT09Oi75xSitbWVvT09ERePEhf9fA835WVFV9HdXJyMmq3mgCWlpZ8NzjT6TTS6XTkxYN0i8LLm29sbPieDN+6dStqt5oAXr9+7Rsj29nZiba2tshtK5t61tbWisyc53kYGBgIjLrXRINS6lsAwDAMTExMxArpkF4Ln5eMEJWOcBwHk5OTuvy5Ao6OjrCysiJM9nIcB2NjY7Halx5czTPagGIh2baNu3fvRu1SE8D+/j4ODg6EMSipVAqjo6Ox2ld6KCj6Gx11r4adnR3hdoSsfSslh4J+729oaIitbI2Yzc1N4Qan67oYHx9HS0tLLL+wYhbF8zyMjIygo6NDn+9IhjGG5eVlYbCSbdu4f/8+DMOIVXJEuo/ih+u6GBkZ0TGyCrBtG5ubm8JrJycnmJycjJ0tGcuilGsZ4hxKafyxbRuLi4tFr3NhyPALK2ZRAKC/v1+nZ0jGMAzk83ksLy+fs9a80NHAwEBZBXN8+4k70DAwxtDe3o6RkREdda+Ara0tzM/Pn1sa88rid+7cKVlsKAwVWfUwxtDW1obu7m7tyCpgdXUVQHGSnWVZuH//PoD4tWGkhxmI4BZFB1Or4fnz577XoiR7iajY8ritrQ3t7e1Ru9MEMDs7W7RIkL1vpSS4+iKEEAwNDQkzBjXR4X7I06dPhUl2MvetpB8K+r3vvffe0xH3ClhZWRHWQXFdF0NDQ9L2rWItj8Ps9nHVxz291Ij5+++/fa/lcjlhXd8oxPJRHMcJ9biR+vp65HI5XbVaAbOzs741Znp6eqRtR8SyKGGeRMqdKl1ZST6UUjx58qTIkeVZgcPDw9Jif5SvevL5PGZmZs5KhGrkQAjB7u4uFhcXhZW9M5kMstmstH2rWBYlzIbb8fExPvnkEy0SBWxubgqrXvENTpn7VrGXx2H8jg8++CBqN5oA5ufnfX2Q9vZ2qftWyi0KIOf0UlPMy5cvhVMLpRR9fX1SCynG8lFKWRPP89Dd3Y10Oq2nHsnwOm1+KTMfffSR1P6UHgrm83l8/vnnelmsgIODA98iAIwxjI2NSb05lVoU13UxNTUVtQtNANvb23j79q3wWiqVwuDgoNT+lJ31cBFNTExE7UITwJs3b4TpGZRSNDc3S68WoaSQDvDfgOvr63Hjxg3tnyhgbW0Nu7u7vpUfZT9RRJlFsW0bY2NjaGlpidqFxgfHcbCxsSG8dnx8jHv37kn3C5XtzFJKkcvlkEqltEWRjG3bZ1FtIqanp6V/50qj8EdHR3XUvQIsy8Li4qIwUD2ZTCKbzUrvM5JQ+GNiSzmzOupePrxgjuh5gY7jYGpqKnZWoIhYkUR+8yA/a+jv74/TvEYAL2F+enpadM2yLGWP3osslKCHNVNKkU6n0dfXp/0TBczNzQlf9zwP09PTSvqMJJQwQUsdHR066l4Rs7OzvgVzVBUBiJ2u4Tf9tLe3xyoFpRFj2zb++OOPogM/z/OQzWYjlzAvhZIaboQQDA8Pl/3cOk0wPFhpbW1N+Azpmzdvor6+XolQIsXJMcZwcnIC13WFT0e3LAvj4+NnotHEh//48/Pzvtdv3LihrFpE5IDKINXW1dWhs7MTW1tbUZvX+PDo0aNzT4AtROWj95RU3TNNE19++SWA+DmvMqnmE9VFRfjCvK/w/fwxcKL4nlQqhf7+fmW5U8rKMx4cHNSUSK4KolwqSikymQwGBweFlkYGyoSi/ZPKwdMzyn06ejlEslOu62Jvb0/2WDQR4Ruc6XRaWR+RhGLbNtbW1mSPRRMRwzCQzWbR2tqqzIpHmnosy8Lc3Bxc1/V9uORVJqxjWil4/V7TNJVNPZGEks/n0dzcjKmpKWmnw0Ffdpj43HL7ipqTG7QqCYtpmmXV6C3VFmNMetT9RYjneWVLUJevqD1UL/0jWZSwGYKy0cvt6qFkZ1Zz9dBziCYUWiiaUGihaEKhhaIJhRaKJhRaKJpQaKFoQvF/HkU+Jis0zukAAAAASUVORK5CYII=;" vertex="1" parent="1">
          <mxGeometry x="286" y="70" width="35.82" height="34" as="geometry" />
        </mxCell>
        <mxCell id="Ao-p5evww3L0ZYdnTGIq-11" value="" style="shape=image;verticalLabelPosition=bottom;labelBackgroundColor=default;verticalAlign=top;aspect=fixed;imageAspect=0;image=data:image/png,iVBORw0KGgoAAAANSUhEUgAAAIoAAACDCAYAAABSiIOsAAAABHNCSVQICAgIfAhkiAAAABl0RVh0U29mdHdhcmUAZ25vbWUtc2NyZWVuc2hvdO8Dvz4AAAAtdEVYdENyZWF0aW9uIFRpbWUAVHVlIDI2IFNlcCAyMDIzIDA4OjQ3OjQwIFBNIC0wM7QwjvcAAA6+SURBVHic7Z1bbxtFG8f/s2vHOSeOc3ZzVExbSEhJlJYiJCQ+BN+i0nuBuOMSIfEFuOGaG+64Aq4qFVr1IqJFtLRJyDlp1KQ5KQfvaea9QBM58ex6vTtjO8n8JITqdWbG9n+feWbmeZ4lnucxaDQlMKo9AM3lQAtFEwotFE0otFA0odBC0YRCC0UTCi0UTSi0UDSh0ELRhEILRROKhIxGCCEymql5GGNnn5Wx63XyEUsohJBrIxJAfENcF8FEFgohBEtLS/jf//4HSikopfA8D4lEfCN18QcpvJPDIGMMflBKMT4+jm+++ebaiASIaVEsy8Jff/0Fz/PgeZ6sMdU0Jycn6OrqqvYwKk4soVBKwRhDMplUehfXEpRSNDU1XTtfJdaqx/O8a/NFFdLY2AjG2LX67LGEwr+o6/SFMcaQSqWqPYyKE3vqCUJ0110Wk+23onNdFw0NDZfmc8gillCCph7TNNHS0lIRJ/eiYIN+xFI/LCEEjDG4rgvbtouuW5aFxsbGUG1dJZQIxfM8zMzM4LvvvruUZpoxhp9++gnffvstGhoazl7nAuRCMYzqbWxX2keKJZSggaZSKfT09Jz7omudwi+/vr5eeN0wDLiui+3t7UoPLxDDMFBfX49EIoFkMim9/VhCcRynpKpL+TG1it+429vb8cMPP+DHH38s67MRQpRZIMYY2tra8PXXX2NmZkaJpZF21nOV5mvGmK9vZZomtre3a+oGoJSio6MD+Xxe2W8hRShXSSTAf5/HcRzf64ZhVNU/uQhj7GzDU5WAY33aoKnHMAyYphmn+apRSii1iOqbVcqG21WDUop8Pl/tYZSF6lN8Kc7sVfRRXNcFpRSu61Z7OOeo1pmaFKGIRGKa5qWdeggh6Orqwu3bt0P/MDzUgr+fC+ziv0tR+F0WWgnGGEzTxPr6Omzb9vWRDMNQ4qcok+dlDmhKJpN48OABHjx4UO2hFPHFF1/g8ePHFXemlZz18Ncvs1hq8TMQQqo2Fcaeeurq6opeJ4QglUpdCd+lVsZfbcHGjkcR+SGEEKGANOqpyX0U0d3GrUhdXV3V74KrSLVWPbGEYtt2kVj4cvm6hEZWirBToKqbM5ZQeMyssOEa2uK+KoQRS00KRRTYA/w3WBVH3ZrqEduiiCCEXNrNtlqnWstjZVH4iUSiZpaWV4lL6cx6nif0RSilSCaTetWjgGrFwUQWCt8l9MvH1RZFDdVaJETuNSi4V/soV49Y8nRdVy+Prwmxpx6/a1ooVwspeT0iP0VWPg8XnOo8FpGwC/u8TMIvZ6xhnePIQmGMBXYiEs/x8TEsy/JtLy5Bbahuv9z3+gk/6O8IIb6bnJRS7OzsYGlpKXROuGEYyGazoZbcsSyKn48icmYppfj+++/xyy+/+H5BpeJbSuF3pCBqOyjtlFIqFDqPYgvDxXSPi8Lw+xH90kS45bYsq2jXmxCCw8NDfPXVVzAMA7ZtwzTNwLZc10U2m8XPP/+M7u7ukp8nVsUlSqnQzImEks/n8ezZM7x69apsM65iP6ZUknmtTjVB5dAKb9xSO7iu62J4eDh0JmdkoVBKS+a+FLK/v4/9/X0kEgm9dFZEOTX1CCEYHh4OHTcUa9VTai+lcNA7Ozt49+6d3q2tEQghyGazoQ9vY224BS2PTdM8ExEhBFtbWzg8PNRCqQEYY2hqasLQ0FBo6x5r1eN3KGhZ1rmphzGGtbU17O/vC6sEcCeRO6OiwXN/KCgGphC+lxP2/bVYQ9Z1XZimeRab7Lpu6HozpmkilUoJLYbnechkMujv7w/9WZVE4Xued3YoyBiDbdtYX18XDsp1XfT29p7VRQPOb9gV5spwCttJJBKBVuri3158r2maZ+Pk/y/3hDasQ8hXIqXMPd+D4mPiN0nQVH8xhdcwDOzu7uLJkyfCqleZTCbUaoejvDQX8F+A0/LysvAH3dvbw++//46hoaE4Q9EI+O233/Dw4cMih5VXP+jo6AjdVmSheJ6Hk5MT4TUe4cbvUMuysLS0VHQnMcbQ3NyM7u5u3ztFxjRQa1NKJSCE4NWrV0LrSClFT08PGhsbQ6fUKNssKDTne3t7WFhYKPI9HMfB3bt30dDQcGZWL/6niYbjOHj58qXvhuL4+Pi5BUcplAilMGaWEIJ///1XWB0gn8/j448/VjGEc1xH0R0dHfmWD0skErh9+3ZZ7UUWiud5Qh+Fm/lCf+T169fCNhhjZQ9YE47t7W28e/dOeK2urg4DAwNltSfdoojyemZnZ4VzpWmayOVy1+5urwRv377F4eFh0Q459wu7urrK+t6VTT2Fy85Hjx4V7Z94nof+/n5kMhktFMkQQrC+vo7t7e2ilaZt2/jwww/LrtapzJnlSt7c3MTOzk6RI2vbNm7dunVWs1UjD9d18ebNG+FZ3NHRET799NOy24wsFMdxAg8FuZKXlpbO/buQwcFBnSimANu2sbKyUvQ637y7c+dO2W0qnXoA4NmzZ74R+YODg7rqgQIsy8LCwoLQPwGAXC5XdpvKnFkulF9//RXNzc1F70ulUujt7dUhB5IhhODk5AQvXrwougkdx0Eul0Mmkym7XelCKZxiTk9PMTc3VzRgz/PQ2tqKbDarHVnJEEKwuroqPKnP5/P47LPPIrWrLD/RNE1sbGz4xnh2d3ejp6dHVffXmoWFBd9QTu6flHuDKkkA46ysrPgGU2cyGXR2dkbtXhPA8+fPfUM533///UhtRhYKfyqpCB4m8M8///gOOJ1Oo6mpKWr3mgAePnxYtE/CGEM6nUZvb2+k6T6WUEqVvXjx4oVv8PXExARM06zZIObLSNABrGVZyOVyaG5urqxQwuSf7O7uCq87joObN28CuLyPaalVFhcXhZGHjDGMjo5G3o5QlqR+dHSEg4MD4fW6ujodqKSIP//80zfqb2hoKHIGp3QfpTAGZW9vT/hU9GQyib6+vqhdawJ4+vSp8FiEnxhH3beKJRS/LEFKKVZXV7G/vy9cy09PT0eeKzX+nJ6e4vHjx0XTC2MMnZ2dZYcWFKJk6qGUYn19HcfHx0VCOTo6wr1796J2q/GBW/HT09Oi75xSitbWVvT09ERePEhf9fA835WVFV9HdXJyMmq3mgCWlpZ8NzjT6TTS6XTkxYN0i8LLm29sbPieDN+6dStqt5oAXr9+7Rsj29nZiba2tshtK5t61tbWisyc53kYGBgIjLrXRINS6lsAwDAMTExMxArpkF4Ln5eMEJWOcBwHk5OTuvy5Ao6OjrCysiJM9nIcB2NjY7Halx5czTPagGIh2baNu3fvRu1SE8D+/j4ODg6EMSipVAqjo6Ox2ld6KCj6Gx11r4adnR3hdoSsfSslh4J+729oaIitbI2Yzc1N4Qan67oYHx9HS0tLLL+wYhbF8zyMjIygo6NDn+9IhjGG5eVlYbCSbdu4f/8+DMOIVXJEuo/ih+u6GBkZ0TGyCrBtG5ubm8JrJycnmJycjJ0tGcuilGsZ4hxKafyxbRuLi4tFr3NhyPALK2ZRAKC/v1+nZ0jGMAzk83ksLy+fs9a80NHAwEBZBXN8+4k70DAwxtDe3o6RkREdda+Ara0tzM/Pn1sa88rid+7cKVlsKAwVWfUwxtDW1obu7m7tyCpgdXUVQHGSnWVZuH//PoD4tWGkhxmI4BZFB1Or4fnz577XoiR7iajY8ritrQ3t7e1Ru9MEMDs7W7RIkL1vpSS4+iKEEAwNDQkzBjXR4X7I06dPhUl2MvetpB8K+r3vvffe0xH3ClhZWRHWQXFdF0NDQ9L2rWItj8Ps9nHVxz291Ij5+++/fa/lcjlhXd8oxPJRHMcJ9biR+vp65HI5XbVaAbOzs741Znp6eqRtR8SyKGGeRMqdKl1ZST6UUjx58qTIkeVZgcPDw9Jif5SvevL5PGZmZs5KhGrkQAjB7u4uFhcXhZW9M5kMstmstH2rWBYlzIbb8fExPvnkEy0SBWxubgqrXvENTpn7VrGXx2H8jg8++CBqN5oA5ufnfX2Q9vZ2qftWyi0KIOf0UlPMy5cvhVMLpRR9fX1SCynG8lFKWRPP89Dd3Y10Oq2nHsnwOm1+KTMfffSR1P6UHgrm83l8/vnnelmsgIODA98iAIwxjI2NSb05lVoU13UxNTUVtQtNANvb23j79q3wWiqVwuDgoNT+lJ31cBFNTExE7UITwJs3b4TpGZRSNDc3S68WoaSQDvDfgOvr63Hjxg3tnyhgbW0Nu7u7vpUfZT9RRJlFsW0bY2NjaGlpidqFxgfHcbCxsSG8dnx8jHv37kn3C5XtzFJKkcvlkEqltEWRjG3bZ1FtIqanp6V/50qj8EdHR3XUvQIsy8Li4qIwUD2ZTCKbzUrvM5JQ+GNiSzmzOupePrxgjuh5gY7jYGpqKnZWoIhYkUR+8yA/a+jv74/TvEYAL2F+enpadM2yLGWP3osslKCHNVNKkU6n0dfXp/0TBczNzQlf9zwP09PTSvqMJJQwQUsdHR066l4Rs7OzvgVzVBUBiJ2u4Tf9tLe3xyoFpRFj2zb++OOPogM/z/OQzWYjlzAvhZIaboQQDA8Pl/3cOk0wPFhpbW1N+Azpmzdvor6+XolQIsXJMcZwcnIC13WFT0e3LAvj4+NnotHEh//48/Pzvtdv3LihrFpE5IDKINXW1dWhs7MTW1tbUZvX+PDo0aNzT4AtROWj95RU3TNNE19++SWA+DmvMqnmE9VFRfjCvK/w/fwxcKL4nlQqhf7+fmW5U8rKMx4cHNSUSK4KolwqSikymQwGBweFlkYGyoSi/ZPKwdMzyn06ejlEslOu62Jvb0/2WDQR4Ruc6XRaWR+RhGLbNtbW1mSPRRMRwzCQzWbR2tqqzIpHmnosy8Lc3Bxc1/V9uORVJqxjWil4/V7TNJVNPZGEks/n0dzcjKmpKWmnw0Ffdpj43HL7ipqTG7QqCYtpmmXV6C3VFmNMetT9RYjneWVLUJevqD1UL/0jWZSwGYKy0cvt6qFkZ1Zz9dBziCYUWiiaUGihaEKhhaIJhRaKJhRaKJpQaKFoQvF/HkU+Jis0zukAAAAASUVORK5CYII=;" vertex="1" parent="1">
          <mxGeometry x="335" y="70" width="35.82" height="34" as="geometry" />
        </mxCell>
        <mxCell id="Ao-p5evww3L0ZYdnTGIq-12" value="" style="shape=image;verticalLabelPosition=bottom;labelBackgroundColor=default;verticalAlign=top;aspect=fixed;imageAspect=0;image=data:image/png,iVBORw0KGgoAAAANSUhEUgAAAIoAAACDCAYAAABSiIOsAAAABHNCSVQICAgIfAhkiAAAABl0RVh0U29mdHdhcmUAZ25vbWUtc2NyZWVuc2hvdO8Dvz4AAAAtdEVYdENyZWF0aW9uIFRpbWUAVHVlIDI2IFNlcCAyMDIzIDA4OjQ3OjQwIFBNIC0wM7QwjvcAAA6+SURBVHic7Z1bbxtFG8f/s2vHOSeOc3ZzVExbSEhJlJYiJCQ+BN+i0nuBuOMSIfEFuOGaG+64Aq4qFVr1IqJFtLRJyDlp1KQ5KQfvaea9QBM58ex6vTtjO8n8JITqdWbG9n+feWbmeZ4lnucxaDQlMKo9AM3lQAtFEwotFE0otFA0odBC0YRCC0UTCi0UTSi0UDSh0ELRhEILRROKhIxGCCEymql5GGNnn5Wx63XyEUsohJBrIxJAfENcF8FEFgohBEtLS/jf//4HSikopfA8D4lEfCN18QcpvJPDIGMMflBKMT4+jm+++ebaiASIaVEsy8Jff/0Fz/PgeZ6sMdU0Jycn6OrqqvYwKk4soVBKwRhDMplUehfXEpRSNDU1XTtfJdaqx/O8a/NFFdLY2AjG2LX67LGEwr+o6/SFMcaQSqWqPYyKE3vqCUJ0110Wk+23onNdFw0NDZfmc8gillCCph7TNNHS0lIRJ/eiYIN+xFI/LCEEjDG4rgvbtouuW5aFxsbGUG1dJZQIxfM8zMzM4LvvvruUZpoxhp9++gnffvstGhoazl7nAuRCMYzqbWxX2keKJZSggaZSKfT09Jz7omudwi+/vr5eeN0wDLiui+3t7UoPLxDDMFBfX49EIoFkMim9/VhCcRynpKpL+TG1it+429vb8cMPP+DHH38s67MRQpRZIMYY2tra8PXXX2NmZkaJpZF21nOV5mvGmK9vZZomtre3a+oGoJSio6MD+Xxe2W8hRShXSSTAf5/HcRzf64ZhVNU/uQhj7GzDU5WAY33aoKnHMAyYphmn+apRSii1iOqbVcqG21WDUop8Pl/tYZSF6lN8Kc7sVfRRXNcFpRSu61Z7OOeo1pmaFKGIRGKa5qWdeggh6Orqwu3bt0P/MDzUgr+fC+ziv0tR+F0WWgnGGEzTxPr6Omzb9vWRDMNQ4qcok+dlDmhKJpN48OABHjx4UO2hFPHFF1/g8ePHFXemlZz18Ncvs1hq8TMQQqo2Fcaeeurq6opeJ4QglUpdCd+lVsZfbcHGjkcR+SGEEKGANOqpyX0U0d3GrUhdXV3V74KrSLVWPbGEYtt2kVj4cvm6hEZWirBToKqbM5ZQeMyssOEa2uK+KoQRS00KRRTYA/w3WBVH3ZrqEduiiCCEXNrNtlqnWstjZVH4iUSiZpaWV4lL6cx6nif0RSilSCaTetWjgGrFwUQWCt8l9MvH1RZFDdVaJETuNSi4V/soV49Y8nRdVy+Prwmxpx6/a1ooVwspeT0iP0VWPg8XnOo8FpGwC/u8TMIvZ6xhnePIQmGMBXYiEs/x8TEsy/JtLy5Bbahuv9z3+gk/6O8IIb6bnJRS7OzsYGlpKXROuGEYyGazoZbcsSyKn48icmYppfj+++/xyy+/+H5BpeJbSuF3pCBqOyjtlFIqFDqPYgvDxXSPi8Lw+xH90kS45bYsq2jXmxCCw8NDfPXVVzAMA7ZtwzTNwLZc10U2m8XPP/+M7u7ukp8nVsUlSqnQzImEks/n8ezZM7x69apsM65iP6ZUknmtTjVB5dAKb9xSO7iu62J4eDh0JmdkoVBKS+a+FLK/v4/9/X0kEgm9dFZEOTX1CCEYHh4OHTcUa9VTai+lcNA7Ozt49+6d3q2tEQghyGazoQ9vY224BS2PTdM8ExEhBFtbWzg8PNRCqQEYY2hqasLQ0FBo6x5r1eN3KGhZ1rmphzGGtbU17O/vC6sEcCeRO6OiwXN/KCgGphC+lxP2/bVYQ9Z1XZimeRab7Lpu6HozpmkilUoJLYbnechkMujv7w/9WZVE4Xued3YoyBiDbdtYX18XDsp1XfT29p7VRQPOb9gV5spwCttJJBKBVuri3158r2maZ+Pk/y/3hDasQ8hXIqXMPd+D4mPiN0nQVH8xhdcwDOzu7uLJkyfCqleZTCbUaoejvDQX8F+A0/LysvAH3dvbw++//46hoaE4Q9EI+O233/Dw4cMih5VXP+jo6AjdVmSheJ6Hk5MT4TUe4cbvUMuysLS0VHQnMcbQ3NyM7u5u3ztFxjRQa1NKJSCE4NWrV0LrSClFT08PGhsbQ6fUKNssKDTne3t7WFhYKPI9HMfB3bt30dDQcGZWL/6niYbjOHj58qXvhuL4+Pi5BUcplAilMGaWEIJ///1XWB0gn8/j448/VjGEc1xH0R0dHfmWD0skErh9+3ZZ7UUWiud5Qh+Fm/lCf+T169fCNhhjZQ9YE47t7W28e/dOeK2urg4DAwNltSfdoojyemZnZ4VzpWmayOVy1+5urwRv377F4eFh0Q459wu7urrK+t6VTT2Fy85Hjx4V7Z94nof+/n5kMhktFMkQQrC+vo7t7e2ilaZt2/jwww/LrtapzJnlSt7c3MTOzk6RI2vbNm7dunVWs1UjD9d18ebNG+FZ3NHRET799NOy24wsFMdxAg8FuZKXlpbO/buQwcFBnSimANu2sbKyUvQ637y7c+dO2W0qnXoA4NmzZ74R+YODg7rqgQIsy8LCwoLQPwGAXC5XdpvKnFkulF9//RXNzc1F70ulUujt7dUhB5IhhODk5AQvXrwougkdx0Eul0Mmkym7XelCKZxiTk9PMTc3VzRgz/PQ2tqKbDarHVnJEEKwuroqPKnP5/P47LPPIrWrLD/RNE1sbGz4xnh2d3ejp6dHVffXmoWFBd9QTu6flHuDKkkA46ysrPgGU2cyGXR2dkbtXhPA8+fPfUM533///UhtRhYKfyqpCB4m8M8///gOOJ1Oo6mpKWr3mgAePnxYtE/CGEM6nUZvb2+k6T6WUEqVvXjx4oVv8PXExARM06zZIObLSNABrGVZyOVyaG5urqxQwuSf7O7uCq87joObN28CuLyPaalVFhcXhZGHjDGMjo5G3o5QlqR+dHSEg4MD4fW6ujodqKSIP//80zfqb2hoKHIGp3QfpTAGZW9vT/hU9GQyib6+vqhdawJ4+vSp8FiEnxhH3beKJRS/LEFKKVZXV7G/vy9cy09PT0eeKzX+nJ6e4vHjx0XTC2MMnZ2dZYcWFKJk6qGUYn19HcfHx0VCOTo6wr1796J2q/GBW/HT09Oi75xSitbWVvT09ERePEhf9fA835WVFV9HdXJyMmq3mgCWlpZ8NzjT6TTS6XTkxYN0i8LLm29sbPieDN+6dStqt5oAXr9+7Rsj29nZiba2tshtK5t61tbWisyc53kYGBgIjLrXRINS6lsAwDAMTExMxArpkF4Ln5eMEJWOcBwHk5OTuvy5Ao6OjrCysiJM9nIcB2NjY7Halx5czTPagGIh2baNu3fvRu1SE8D+/j4ODg6EMSipVAqjo6Ox2ld6KCj6Gx11r4adnR3hdoSsfSslh4J+729oaIitbI2Yzc1N4Qan67oYHx9HS0tLLL+wYhbF8zyMjIygo6NDn+9IhjGG5eVlYbCSbdu4f/8+DMOIVXJEuo/ih+u6GBkZ0TGyCrBtG5ubm8JrJycnmJycjJ0tGcuilGsZ4hxKafyxbRuLi4tFr3NhyPALK2ZRAKC/v1+nZ0jGMAzk83ksLy+fs9a80NHAwEBZBXN8+4k70DAwxtDe3o6RkREdda+Ara0tzM/Pn1sa88rid+7cKVlsKAwVWfUwxtDW1obu7m7tyCpgdXUVQHGSnWVZuH//PoD4tWGkhxmI4BZFB1Or4fnz577XoiR7iajY8ritrQ3t7e1Ru9MEMDs7W7RIkL1vpSS4+iKEEAwNDQkzBjXR4X7I06dPhUl2MvetpB8K+r3vvffe0xH3ClhZWRHWQXFdF0NDQ9L2rWItj8Ps9nHVxz291Ij5+++/fa/lcjlhXd8oxPJRHMcJ9biR+vp65HI5XbVaAbOzs741Znp6eqRtR8SyKGGeRMqdKl1ZST6UUjx58qTIkeVZgcPDw9Jif5SvevL5PGZmZs5KhGrkQAjB7u4uFhcXhZW9M5kMstmstH2rWBYlzIbb8fExPvnkEy0SBWxubgqrXvENTpn7VrGXx2H8jg8++CBqN5oA5ufnfX2Q9vZ2qftWyi0KIOf0UlPMy5cvhVMLpRR9fX1SCynG8lFKWRPP89Dd3Y10Oq2nHsnwOm1+KTMfffSR1P6UHgrm83l8/vnnelmsgIODA98iAIwxjI2NSb05lVoU13UxNTUVtQtNANvb23j79q3wWiqVwuDgoNT+lJ31cBFNTExE7UITwJs3b4TpGZRSNDc3S68WoaSQDvDfgOvr63Hjxg3tnyhgbW0Nu7u7vpUfZT9RRJlFsW0bY2NjaGlpidqFxgfHcbCxsSG8dnx8jHv37kn3C5XtzFJKkcvlkEqltEWRjG3bZ1FtIqanp6V/50qj8EdHR3XUvQIsy8Li4qIwUD2ZTCKbzUrvM5JQ+GNiSzmzOupePrxgjuh5gY7jYGpqKnZWoIhYkUR+8yA/a+jv74/TvEYAL2F+enpadM2yLGWP3osslKCHNVNKkU6n0dfXp/0TBczNzQlf9zwP09PTSvqMJJQwQUsdHR066l4Rs7OzvgVzVBUBiJ2u4Tf9tLe3xyoFpRFj2zb++OOPogM/z/OQzWYjlzAvhZIaboQQDA8Pl/3cOk0wPFhpbW1N+Azpmzdvor6+XolQIsXJMcZwcnIC13WFT0e3LAvj4+NnotHEh//48/Pzvtdv3LihrFpE5IDKINXW1dWhs7MTW1tbUZvX+PDo0aNzT4AtROWj95RU3TNNE19++SWA+DmvMqnmE9VFRfjCvK/w/fwxcKL4nlQqhf7+fmW5U8rKMx4cHNSUSK4KolwqSikymQwGBweFlkYGyoSi/ZPKwdMzyn06ejlEslOu62Jvb0/2WDQR4Ruc6XRaWR+RhGLbNtbW1mSPRRMRwzCQzWbR2tqqzIpHmnosy8Lc3Bxc1/V9uORVJqxjWil4/V7TNJVNPZGEks/n0dzcjKmpKWmnw0Ffdpj43HL7ipqTG7QqCYtpmmXV6C3VFmNMetT9RYjneWVLUJevqD1UL/0jWZSwGYKy0cvt6qFkZ1Zz9dBziCYUWiiaUGihaEKhhaIJhRaKJhRaKJpQaKFoQvF/HkU+Jis0zukAAAAASUVORK5CYII=;" vertex="1" parent="1">
          <mxGeometry x="379" y="70" width="35.82" height="34" as="geometry" />
        </mxCell>
        <mxCell id="Ao-p5evww3L0ZYdnTGIq-13" value="Client" style="text;html=1;strokeColor=none;fillColor=none;align=center;verticalAlign=middle;whiteSpace=wrap;rounded=0;fontSize=16;" vertex="1" parent="1">
          <mxGeometry x="-276" y="29" width="62" height="30" as="geometry" />
        </mxCell>
        <mxCell id="Ao-p5evww3L0ZYdnTGIq-15" value="Server" style="text;html=1;strokeColor=none;fillColor=none;align=center;verticalAlign=middle;whiteSpace=wrap;rounded=0;fontSize=16;" vertex="1" parent="1">
          <mxGeometry x="303.5" y="-38" width="62" height="30" as="geometry" />
        </mxCell>
        <mxCell id="Ao-p5evww3L0ZYdnTGIq-18" value="" style="endArrow=none;html=1;rounded=0;fontSize=12;startSize=8;endSize=8;curved=1;exitX=1;exitY=0.5;exitDx=0;exitDy=0;entryX=0;entryY=0.466;entryDx=0;entryDy=0;entryPerimeter=0;" edge="1" parent="1" source="Ao-p5evww3L0ZYdnTGIq-1" target="Ao-p5evww3L0ZYdnTGIq-2">
          <mxGeometry width="50" height="50" relative="1" as="geometry">
            <mxPoint x="175" y="209" as="sourcePoint" />
            <mxPoint x="225" y="159" as="targetPoint" />
          </mxGeometry>
        </mxCell>
      </root>
    </mxGraphModel>
  </diagram>
</mxfile>
